<svg version="1" xmlns="http://www.w3.org/2000/svg" width="490.667" height="490.667" viewBox="0 0 368.000000 368.000000"><path d="M116.8.5c-.2.2-2.5.5-5.3.6-6 .3-10.4 1.6-21 6.1-7.8 3.2-8.4 3.3-21.8 3.3H55l.6 3c2.6 11.9 8.5 25.5 15.7 36.3l5.5 8.2-6 3C43 74.8 20.3 102.6 10.1 135.5c-1.5 4.6-3.1 7.7-4.8 9.1l-2.7 2.1-.1 46.2c-.3 52.6-.6 50.1 7.7 50.4l4.6.2L19 254c16 39.6 42.1 76.3 68.3 96.3 16.4 12.6 30.9 17.9 48 17.6 10.6-.2 13.8-.7 29.6-4.6 13.1-3.2 23.4-3.3 34.6-.3 27.1 7.2 45.5 6.6 63.1-2.3 27.9-14 56.9-48.5 77.8-92.1 3.5-7.2 7.1-15.5 8.1-18.4l1.9-5.2h4.8c5.1 0 9.4-1.5 10.2-3.6.8-2.1.9-91.7.1-93.6-.4-1-2.1-2.2-3.8-2.6-2.8-.7-3.2-1.5-6.2-10.7-12.4-38.7-40.8-68.9-74.7-79.3-14.5-4.5-39-4.8-56.8-.7-18.7 4.4-27.7 6-31.7 5.6-1.6-.1 2.5-13.2 8.8-28 2.7-6.4 4.9-12.1 4.9-12.7 0-1.8-3.8-6.1-5.9-6.7-3.1-.8-7.5 2.1-9.3 6.1-.9 2-2.8 6.3-4.2 9.5-1.4 3.2-2.6 5.9-2.6 6.2 0 .2-.5 1.6-1 3-1 2.6-1.1 2.5-6-4.8-6-8.9-13.7-16.3-22.8-21.7-7.3-4.3-19.1-8.5-26.2-9.5-7.8-1-10.9-1.2-11.2-1zm22.9 15.7c10.8 4.4 21.2 12.5 27.3 21.3 3 4.4 7.3 12.6 6.8 12.9-.2.2-2.4 1.3-5 2.5-2.6 1.3-6.9 4.2-9.6 6.6-9.9 8.9-17.8 11.6-32.6 11.1-11.1-.3-19.8-3-28.6-8.9-9.6-6.5-19.4-18.5-24.5-30.1-4.1-9.3-4.1-9.1 1-9.3 5.9-.3 14.7-2.6 24.1-6.4 13.3-5.3 27.4-5.2 41.1.3zm131 49.7c25.8 4.8 53.6 28.7 66.7 57.2 3.8 8.3 7.8 19.8 7.2 20.8-.3.4-24.2.6-53.3.4-29-.1-101.2-.4-160.3-.7-59.1-.2-108-.5-108.7-.5-1.3-.1 0-5 4.1-15.1 2.4-5.9 11-21.8 12.5-23 .3-.3 2-2.3 3.6-4.5C50.8 89.4 68 75.9 80.8 70.6L87 68l6.7 4c8.9 5.3 16.1 8 25.9 9.5 9.9 1.5 13.8 1.3 24.9-1.1 3.6-.8 11-4.1 14.5-6.4 1.9-1.3 3.9-1.6 8.3-1.2l5.9.5-.6 3.1c-1.9 10.5-3.7 28.5-2.8 28.8.4 0 3.7.2 7.5.3 6.2.2 6.7.1 6.8-1.9.4-8.9 2.6-24.7 3.9-28.1.6-1.5 1.8-2.1 4.6-2.3 8.1-.5 14.2-1.4 22.4-3.4 4.6-1.1 8.9-2.1 9.5-2.2.5-.2 3.5-.8 6.5-1.4 3-.6 6.9-1.3 8.5-1.4 6.3-.7 25.3 0 31.2 1.1zm11 91.1l66.2.2.8 4.6c1 6 .9 33.2-.1 39.7-.9 6.3-5.1 24.2-6.5 27.7l-1 2.7-94.3-.4c-51.9-.2-123.2-.4-158.5-.5l-64.1-.1-2.1-7.7c-2.1-7.9-3.7-15.3-4.9-23.2-.9-6.1-.9-31.2.1-38.2l.8-5.7 98.7.4c54.3.2 128.5.4 164.9.5zm-51.2 87.4c57.2.2 104.5.5 105.2.5 2.7.2-13 32.2-24.4 49.6-13.4 20.5-25.9 34.6-40.8 46-13.4 10.3-25.6 14.8-39.4 14.6-7.8-.1-13.4-1-33.1-5.6-7.9-1.8-23.3-1.8-31 .2-23.1 5.8-38.1 7-47.5 3.8-28.9-9.9-58.8-42.3-81-88-7.1-14.7-9.7-21-9-21.7.2-.2 22.1-.2 48.7-.1s95.1.4 152.3.7z"/><path d="M117.5 190c-1.5 1.7-1.9 4-2 14.3-.1 6.7.2 13.2.6 14.5 1.9 5.1 10.2 4.8 11.5-.5.4-1.5.7-8.1.8-14.7 0-11.2-.1-12-2.3-13.7-3-2.5-6.3-2.4-8.6.1zM245.1 190.7c-1.9 2.3-2.1 4-2.1 15 0 11.8.1 12.5 2.5 14.8 1.3 1.4 2.9 2.5 3.5 2.5 1.6 0 5.3-2.1 6.2-3.4.4-.6.8-7 .8-14.2 0-14.5-.6-16.4-5.8-17-2.4-.3-3.6.2-5.1 2.3zM41.2 198c-1.9 1.8-2.2 3.1-2.2 10.8 0 9.7.9 11.8 5.3 12.6 2.1.4 3.5-.1 5.2-1.8 2-2 2.2-3.1 2.1-11-.2-7.9-.4-9-2.5-10.7-3-2.4-5.2-2.4-7.9.1zM66.9 197.9c-2 1.6-2.3 2.8-2.5 10.5-.2 9.5.9 12 5.6 13.1 5.6 1.2 8-4.4 7-16.3-.8-8.8-4.7-11.7-10.1-7.3zM94 196.7c-3.1 1.2-3.9 3.8-4 12.4 0 9.3.9 11.4 5.2 12.4 2.1.5 3.3.1 5.3-1.9 2.3-2.3 2.5-3.2 2.4-10.7-.1-7.2-.4-8.5-2.5-10.6-2.3-2.3-3.6-2.6-6.4-1.6zM143 198.3c-1.7 1.7-2 3.5-2 10.6.1 9.6 1.1 11.8 5.6 12.6 5.3 1 6.9-1.4 7.2-11.3.3-7.4.1-9.1-1.5-11.1-2.6-3.1-6.8-3.5-9.3-.8zM170.2 196.6c-2.5 1.1-3.8 5.9-3.6 13.8.1 6.9.4 8.2 2.4 9.8 2.8 2.3 5.2 2.3 8 0 2-1.6 2.3-2.8 2.4-10.7.1-6.6-.3-9.3-1.4-10.7-1.6-1.9-5.7-3-7.8-2.2zM194 198.7c-1.6 2-2 4.1-2 9.9 0 8.4 1.3 12 4.6 12.8 2.9.8 6.9-.8 7.8-2.9.3-.9.6-5.3.6-9.8-.1-9.3-1.2-11.6-5.9-12.2-2.4-.3-3.5.2-5.1 2.2zM221.3 197.1c-2.8 1-3.6 3.9-3.6 13.4.1 6.9.3 8.1 2.3 9.7 2.8 2.3 5.2 2.3 8.1-.1 2.1-1.7 2.3-2.7 2.3-11 0-6.8-.3-9.5-1.5-10.6-1.9-1.9-4.8-2.5-7.6-1.4zM273 197.1c-3.6 1.5-4 2.5-4 12.6 0 8.4.2 9.3 2.2 10.7 3.1 2.2 5.5 2 8.2-.7 2.2-2.2 2.4-3.1 2.2-11.2-.2-7.8-.5-9-2.5-10.6-2.6-2.1-2.7-2.1-6.1-.8zM296.3 198.2c-2.7 3-2.8 17.9-.1 21.3 2.4 3 6.1 3.2 8.8.5 1.7-1.7 2-3.3 2-11 0-7.8-.3-9.3-2-10.7-2.7-2.4-6.6-2.4-8.7-.1zM322.5 198.3c-2.5 2.3-2.8 4-2.6 14.4.1 3.9.6 5.8 2.1 7.3 2.7 2.7 6.4 2.5 8.8-.5 2.8-3.5 3.1-17.2.5-20.4-2.6-3.1-5.9-3.4-8.8-.8z"/></svg>